<?xml version="1.0" encoding="utf-8"?>
<!-- Generator: Adobe Illustrator 16.0.0, SVG Export Plug-In . SVG Version: 6.00 Build 0)  -->
<!DOCTYPE svg PUBLIC "-//W3C//DTD SVG 1.1//EN" "http://www.w3.org/Graphics/SVG/1.1/DTD/svg11.dtd">
<svg version="1.1"  xmlns="http://www.w3.org/2000/svg" xmlns:xlink="http://www.w3.org/1999/xlink" x="0px" y="0px"
	 width="700px" height="400px" viewBox="0 0 700 400" enable-background="new 0 0 700 400" xml:space="preserve">
<polygon  points="14.333,66.501 1.667,58.167 1.667,51.834 54.5,0 645,0 
	700,57.667 697.001,61 695.834,62.167 692.501,63.333 689.167,63.667 687.334,66.501 685.834,68.833 686.001,71.833 682.001,73.333 
	15.667,69.667 "/>
<rect x="463" y="82.333" f width="188" height="84"/>
<polygon  points="646.334,250.999 646.334,171.666 463,171.666 463,246.999 "/>
<polygon  points="646.334,262.999 646.334,333.666 463,333.666 463,254.999 
	646.334,254.999 "/>
<polygon  points="429.667,82.333 429.667,119.666 48.333,119.666 
	48.333,79.666 "/>
</svg>
